<?xml version="1.0" encoding="utf-8"?>
<!-- Generator: Adobe Illustrator 22.0.1, SVG Export Plug-In . SVG Version: 6.00 Build 0)  -->
<svg version="1.1" id="Camada_1" xmlns="http://www.w3.org/2000/svg" xmlns:xlink="http://www.w3.org/1999/xlink" x="0px" y="0px"
	 viewBox="0 0 271.7 206.3" style="enable-background:new 0 0 271.7 206.3;" xml:space="preserve">
<style type="text/css">
	.st0{fill:none;stroke:#F5F5F5;stroke-width:5;stroke-miterlimit:10;}
</style>
<path class="st0" d="M196.7,152.8h22c26.4,0,48.1-21.6,48.1-48.1v0c0-23.1-16.6-42.6-38.4-47.1c-5.9-30.9-33.1-54.2-65.7-54.2
	c-26.9,0-50.1,15.9-60.7,38.7C94.9,35.3,85.2,31,74.5,31c-18.6,0-34.2,12.9-38.3,30.3C19.9,69,8.5,85.6,8.5,104.8v0
	c0,26.4,21.6,48.1,48.1,48.1h30.7"/>
<g>
	<line class="st0" x1="149.2" y1="97.3" x2="113.3" y2="135.5"/>
	<line class="st0" x1="185.2" y1="135.5" x2="149.2" y2="97.3"/>
	<line class="st0" x1="149.2" y1="97.3" x2="149.2" y2="203.2"/>
</g>
</svg>
