<?xml version="1.0" encoding="utf-8"?>
<!-- Generator: Adobe Illustrator 22.0.1, SVG Export Plug-In . SVG Version: 6.00 Build 0)  -->
<svg version="1.1" id="Camada_1" xmlns="http://www.w3.org/2000/svg" xmlns:xlink="http://www.w3.org/1999/xlink" x="0px" y="0px"
	 viewBox="0 0 271.7 206.3" style="enable-background:new 0 0 271.7 206.3;" xml:space="preserve">
<style type="text/css">
	.st0{fill:none;stroke:#F5F5F5;stroke-width:5;stroke-miterlimit:10;}
	.st1{fill:none;stroke:#F5F5F5;stroke-width:5;stroke-linecap:round;stroke-miterlimit:10;}
	.st2{fill:#1A1A1A;stroke:#F5F5F5;stroke-width:5;stroke-linecap:round;stroke-miterlimit:10;}
</style>
<g>
	<path class="st0" d="M183.2,188.5H98.8c-4.8,0-8.7-3.9-8.7-8.7V30.4c0-4.8,3.9-8.7,8.7-8.7h84.3c4.8,0,8.7,3.9,8.7,8.7v149.4
		C191.8,184.6,187.9,188.5,183.2,188.5z"/>
	<line class="st1" x1="119" y1="34.6" x2="163" y2="34.6"/>
	<line class="st1" x1="129.3" y1="174.6" x2="152.7" y2="174.6"/>
	<path class="st1" d="M177.8,166.1h-73.6c-0.7,0-1.3-0.6-1.3-1.3V48.2c0-0.7,0.6-1.3,1.3-1.3h73.6c0.7,0,1.3,0.6,1.3,1.3v116.6
		C179.1,165.5,178.5,166.1,177.8,166.1z"/>
</g>
<g>
	<path class="st1" d="M256.2,68.3c-4.1-8-10.7-14.8-19.5-19.1c-9.7-4.7-20.4-5.3-30-2.6"/>
	<path class="st1" d="M210.9,55.6c7-1.8,14.7-1.2,21.8,2.2c6.3,3,11.2,7.9,14.3,13.6"/>
	<path class="st1" d="M213.8,63.8c4.9-0.9,10.2-0.4,15,1.9c4.4,2.1,7.8,5.3,10.1,9.1"/>
	<path class="st1" d="M246.9,71.4c-3.1-5.7-8-10.6-14.3-13.6c-7.1-3.4-14.7-4-21.8-2.2"/>
	<polygon class="st2" points="217.4,76.6 219.9,83.5 227.4,80.8 	"/>
</g>
<g>
	<rect x="224.6" y="105.1" class="st1" width="44.7" height="56.9"/>
	<line class="st1" x1="233.4" y1="116" x2="251.7" y2="116"/>
	<line class="st1" x1="246.9" y1="127.8" x2="260.1" y2="127.8"/>
	<line class="st1" x1="233.4" y1="146.8" x2="255.7" y2="146.8"/>
</g>
<g>
	<rect x="27" y="55.3" transform="matrix(0.9894 -0.145 0.145 0.9894 -9.5842 7.5408)" class="st1" width="40" height="28.5"/>
	<path class="st1" d="M58.1,52.1L31.9,56l-2.1-14.5c-0.3-2.3,1.2-4.4,3.5-4.7l18-2.6c2.3-0.3,4.4,1.2,4.7,3.5L58.1,52.1z"/>
</g>
<g>
	<polygon class="st1" points="56.9,153.9 14.1,144.8 13.6,116.7 68.2,128.3 	"/>
	<circle class="st1" cx="17.9" cy="156.6" r="5.1"/>
	<circle class="st1" cx="47.3" cy="162.9" r="5.1"/>
	<polyline class="st1" points="13.8,130.7 13.2,107.4 2.4,106.5 	"/>
</g>
</svg>
