<?xml version="1.0" encoding="utf-8"?>
<!-- Generator: Adobe Illustrator 22.0.1, SVG Export Plug-In . SVG Version: 6.00 Build 0)  -->
<svg version="1.1" id="Camada_1" xmlns="http://www.w3.org/2000/svg" xmlns:xlink="http://www.w3.org/1999/xlink" x="0px" y="0px"
	 viewBox="0 0 271.7 206.3" style="enable-background:new 0 0 271.7 206.3;" xml:space="preserve">
<style type="text/css">
	.st0{fill:none;stroke:#F2F2F2;stroke-width:5;stroke-linejoin:round;stroke-miterlimit:10;}
</style>
<polyline class="st0" points="48.6,7.6 48.6,200.6 218.7,200.6 218.7,7.6 48.6,7.6 "/>
<line class="st0" x1="48.6" y1="33.8" x2="218.7" y2="33.8"/>
<line class="st0" x1="48.6" y1="58.1" x2="218.7" y2="58.1"/>
<rect x="60.2" y="74.1" class="st0" width="40.9" height="33.2"/>
<rect x="108.7" y="74.1" class="st0" width="46.7" height="33.2"/>
<rect x="163.7" y="74.1" class="st0" width="40.9" height="33.2"/>
<line class="st0" x1="108.7" y1="164.2" x2="48.6" y2="164.2"/>
<polygon class="st0" points="155,153.1 159.5,169.3 163.5,163.6 169.5,169.6 172.4,166.7 166.9,161.2 171.3,157.8 "/>
<line class="st0" x1="188.6" y1="200.6" x2="188.6" y2="122"/>
<rect x="60.2" y="19.3" class="st0" width="7" height="7"/>
<rect x="76.8" y="19.3" class="st0" width="7" height="7"/>
<rect x="92.8" y="19.3" class="st0" width="7" height="7"/>
<rect x="110.1" y="19.3" class="st0" width="94.5" height="7"/>
</svg>
