<?xml version="1.0" encoding="utf-8"?>
<!-- Generator: Adobe Illustrator 22.0.1, SVG Export Plug-In . SVG Version: 6.00 Build 0)  -->
<svg version="1.1" id="Camada_1" xmlns="http://www.w3.org/2000/svg" xmlns:xlink="http://www.w3.org/1999/xlink" x="0px" y="0px"
	 viewBox="0 0 271.7 206.3" style="enable-background:new 0 0 271.7 206.3;" xml:space="preserve">
<style type="text/css">
	.st0{fill:none;stroke:#F2F2F2;stroke-width:5;stroke-miterlimit:10;}
	.st1{fill:none;stroke:#F2F2F2;stroke-width:5;stroke-linecap:round;stroke-miterlimit:10;}
</style>
<g>
	<rect x="84.2" y="32.6" class="st0" width="134.9" height="100.1"/>
	<line class="st1" x1="90.9" y1="56" x2="210.3" y2="56"/>
	<polyline class="st1" points="135.3,103.4 125.4,94 135.3,85.7 	"/>
	<line class="st1" x1="146.2" y1="107.5" x2="155" y2="85.7"/>
	<polyline class="st1" points="165.9,85.7 175.8,95.1 165.9,103.4 	"/>
</g>
<g>
	<path class="st0" d="M239.3,162.8l-13.1,6.4l-7,3.4c-5.4,2.6-12,0.3-14.6-5.1l-1.3-2.7c-2.6-5.4-0.3-12,5.1-14.6l20.9-10.2
		l8.6-14.7l18.9,39L239.3,162.8z"/>
	<line class="st1" x1="210.4" y1="154.4" x2="216.8" y2="167.8"/>
	<path class="st1" d="M248.1,140L248.1,140c2.5-1.2,5.6-0.2,6.8,2.4l0,0c1.2,2.5,0.2,5.6-2.4,6.8h0"/>
	<line class="st1" x1="254.8" y1="136" x2="257.1" y2="130.3"/>
	<line class="st1" x1="256.7" y1="141" x2="263.7" y2="137.6"/>
	<line class="st1" x1="259.6" y1="146.4" x2="265.1" y2="147.3"/>
	<path class="st1" d="M230.1,169.5l3.8,7.8c1,2,0.1,4.5-1.9,5.5l0,0c-2,1-4.5,0.1-5.5-1.9l-3.8-7.8"/>
</g>
<g>
	<path class="st0" d="M32.5,73.9l13.1,6.4l7,3.4c5.4,2.6,12,0.3,14.6-5.1l1.3-2.7c2.6-5.4,0.3-12-5.1-14.6L42.5,51.1l-8.6-14.7
		L15,75.3L32.5,73.9z"/>
	<line class="st1" x1="61.4" y1="65.5" x2="54.9" y2="78.9"/>
	<path class="st1" d="M23.6,51L23.6,51c-2.5-1.2-5.6-0.2-6.8,2.4l0,0c-1.2,2.5-0.2,5.6,2.4,6.8l0,0"/>
	<line class="st1" x1="17" y1="47.1" x2="14.7" y2="41.4"/>
	<line class="st1" x1="15" y1="52" x2="8" y2="48.6"/>
	<line class="st1" x1="12.2" y1="57.5" x2="6.6" y2="58.4"/>
	<path class="st1" d="M41.6,80.6l-3.8,7.8c-1,2-0.1,4.5,1.9,5.5h0c2,1,4.5,0.1,5.5-1.9l3.8-7.8"/>
</g>
</svg>
