<?xml version="1.0" encoding="utf-8"?>
<!-- Generator: Adobe Illustrator 22.0.1, SVG Export Plug-In . SVG Version: 6.00 Build 0)  -->
<svg version="1.1" id="Camada_1" xmlns="http://www.w3.org/2000/svg" xmlns:xlink="http://www.w3.org/1999/xlink" x="0px" y="0px"
	 viewBox="0 0 271.7 206.3" style="enable-background:new 0 0 271.7 206.3;" xml:space="preserve">
<style type="text/css">
	.st0{fill:none;stroke:#F2F2F2;stroke-width:5;stroke-miterlimit:10;}
</style>
<polygon class="st0" points="17.5,199.7 22,162.5 77.1,162.5 83.1,199.7 "/>
<rect x="27.5" y="146.8" class="st0" width="45.5" height="15.7"/>
<polygon class="st0" points="35,146.8 21.6,125.2 41,79 61.1,79 79,126.7 66.3,146.8 "/>
<path class="st0" d="M17.3,92c0-18.3,14.9-33.2,33.2-33.2S83.6,73.7,83.6,92"/>
<line class="st0" x1="26.8" y1="59.2" x2="73.8" y2="59.2"/>
<circle class="st0" cx="21.8" cy="59.2" r="5"/>
<circle class="st0" cx="79.2" cy="58.1" r="5"/>
<rect x="41.7" y="47.3" class="st0" width="17.1" height="11.9"/>
<polygon class="st0" points="101.2,155.2 105.7,117.9 160.9,117.9 166.8,155.2 "/>
<rect x="111.3" y="102.3" class="st0" width="45.5" height="15.7"/>
<polygon class="st0" points="118.8,102.3 105.3,80.7 124.7,34.5 144.8,34.5 162.7,82.2 150.1,102.3 "/>
<line class="st0" x1="110.6" y1="14.7" x2="157.5" y2="14.7"/>
<circle class="st0" cx="105.5" cy="14.7" r="5"/>
<circle class="st0" cx="162.9" cy="13.6" r="5"/>
<rect x="125.5" y="5" class="st0" width="17.1" height="17.1"/>
<line class="st0" x1="132.9" y1="35.6" x2="132.9" y2="64.3"/>
<circle class="st0" cx="134.2" cy="68.4" r="5"/>
<rect x="196.2" y="145.3" class="st0" width="55.9" height="50.9"/>
<circle class="st0" cx="196.2" cy="144.9" r="7.8"/>
<circle class="st0" cx="252.1" cy="196.2" r="7.8"/>
<circle class="st0" cx="252.1" cy="145.3" r="7.8"/>
<circle class="st0" cx="196.2" cy="196.2" r="7.8"/>
</svg>
