<?xml version="1.0" encoding="utf-8"?>
<!-- Generator: Adobe Illustrator 22.0.1, SVG Export Plug-In . SVG Version: 6.00 Build 0)  -->
<svg version="1.1" id="Camada_1" xmlns="http://www.w3.org/2000/svg" xmlns:xlink="http://www.w3.org/1999/xlink" x="0px" y="0px"
	 viewBox="0 0 123 135" style="enable-background:new 0 0 123 135;" xml:space="preserve">
<style type="text/css">
	.st0{fill:#1A1A1A;}
</style>
<g>
	<path class="st0" d="M44,31.9c0,0-1.3,0.5,2,2.5c0,0,1.3-1.1,1,8.7c0,0,0.8,4.1,6.8,4l5.3-0.8c0,0-4.8,0.8-4.1,2.5
		c0,0,1.8,3.1,1.1,3.5c0,0-3.2,1.7-2.3,5.5l3.8,20.5c0,0,1.7,3.2,6.8,5.5c0,0-8,1.6-5.7,7.3l2.5,9.8v2.3h24.8c0,0,4.5-1.3,4.5-5.8
		V36.7c0,0-1-4.9-4.5-4.9H44z"/>
	<path class="st0" d="M41.3,35.2l-0.9,9.5l2.6,1.5l1.3-8C44.3,38.2,42.7,33,41.3,35.2z"/>
	<circle class="st0" cx="39.2" cy="50" r="3.8"/>
	<path class="st0" d="M41,66.3l-1.8-5c0,0-0.6-1.9,3.1-1.9l4.2-0.4l3.7-1.7l3.4-3.5c0,0-0.2-2.9-1.4-2l-6.8,4.8l-4.8-0.4l-4.7-1.6
		c0,0-4-0.4-3.5,2.8l5.4,17.8c0,0,3.8,1,6.7-0.5l3.2-1.2c0,0,1.7-0.7,1.9,1.5l3.3,11.5c0,0,2.3,2.2,3.6,0L52.9,73
		c0,0-0.7-3.9-4.2-3.1c-3.5,0.8-7,0.3-7,0.3L41,66.3z"/>
	<path class="st0" d="M38.4,77h3.8l0.8,3.8l-2.3,13.1c0,0-2.4,3.6-4.1,0l3.2-13.4L38.4,77z"/>
	<polygon class="st0" points="44.3,76 45.4,76 50.4,103.1 49.4,103.1 	"/>
</g>
</svg>
