<?xml version="1.0" encoding="utf-8"?>
<!-- Generator: Adobe Illustrator 22.0.1, SVG Export Plug-In . SVG Version: 6.00 Build 0)  -->
<svg version="1.1" id="Camada_1" xmlns="http://www.w3.org/2000/svg" xmlns:xlink="http://www.w3.org/1999/xlink" x="0px" y="0px"
	 viewBox="0 0 123 135" style="enable-background:new 0 0 123 135;" xml:space="preserve">
<style type="text/css">
	.st0{fill:#1A1A1A;}
	.st1{fill:none;stroke:#1A1A1A;stroke-width:4;stroke-miterlimit:10;}
</style>
<g>
	<g>
		<polygon class="st0" points="22.5,101 100.5,101 98.1,95.7 85.1,89.3 73.6,78.4 68.4,70 66.1,73.2 62.6,70 44.9,80.3 27.3,93 		
			"/>
		<polygon class="st1" points="22.5,101 100.4,101 98.4,96 89.6,91.4 84.9,80.9 80.3,83 73,63 61.4,58.8 52.8,75 48,72.5 43.9,79.9 
			33.5,81.5 		"/>
	</g>
	<g>
		<circle class="st0" cx="57.6" cy="37.2" r="3.2"/>
		<path class="st0" d="M54,41.3L50,45c0,0-1.2,1.3,0,2.4l2.2,2.6c0,0,2.2,0.7,1.8-1.6l-1.9-2.3l2.8-2.1v6.5l0.6,6.5l-1.1,7.8
			c0,0,0.9,2,2.5,0.4l1.6-7.6l-0.3-6.5l3,1.9v5.6c0,0,1.1,1.8,2.4,0.4l0.6-7.8l-3.8-2.2l0.1-4.4l2,2.7l4.4,0.3c0,0,1.6-1.1,0-2.1
			l-3.1-0.1l-2.4-4.3H54z"/>
		<path class="st0" d="M66.8,56.7L66.8,56.7c-0.5,0-0.8-0.4-0.8-0.8v-6.2c0-0.5,0.4-0.8,0.8-0.8l0,0c0.5,0,0.8,0.4,0.8,0.8v6.2
			C67.6,56.3,67.2,56.7,66.8,56.7z"/>
		<path class="st0" d="M66.8,44.3L66.8,44.3c-0.5,0-0.8-0.4-0.8-0.8v-6.2c0-0.5,0.4-0.8,0.8-0.8l0,0c0.5,0,0.8,0.4,0.8,0.8v6.2
			C67.6,43.9,67.2,44.3,66.8,44.3z"/>
		<path class="st0" d="M68.8,37.2v6.4c0,0,3.3-1.5,5,0s3.7,0.4,3.7,0.4v-7c0,0-2,1.2-4,0c-0.7-0.4-1.4-0.7-2.2-0.7
			C70.4,36.3,69.4,36.5,68.8,37.2z"/>
	</g>
</g>
</svg>
