<?xml version="1.0" encoding="utf-8"?>
<!-- Generator: Adobe Illustrator 22.0.1, SVG Export Plug-In . SVG Version: 6.00 Build 0)  -->
<svg version="1.1" id="Camada_1" xmlns="http://www.w3.org/2000/svg" xmlns:xlink="http://www.w3.org/1999/xlink" x="0px" y="0px"
	 viewBox="0 0 123 135" style="enable-background:new 0 0 123 135;" xml:space="preserve">
<style type="text/css">
	.st0{fill:#1A1A1A;}
</style>
<g>
	<path class="st0" d="M52,71L40.8,97.7c0,0,0.6,7.3,7.2,3.4l9.4-21.3c0,0,2.6,1,5.4-0.3l9.8-4.4l2.2,9.2c0,0,4.5,3.5,7-1.8
		l-3.4-14.5c0,0-0.9-4.5-6-1.9l-5.7,3.2L66.6,71H52z"/>
	<polygon class="st0" points="64.2,82.6 66.4,80.6 66.4,105.9 64.2,105.9 	"/>
	<path class="st0" d="M68.8,63v1.9c0,0,15.7-6.6,21.8-36.1h-2.5C88.1,28.8,85.9,49.5,68.8,63z"/>
	<path class="st0" d="M51.9,57.9v10.7h14.5V55.4l13.3-21c0,0,0.4-6.3-5.8-2.9l-11,18h-7.3L44,53.8L38,45c0,0-5.1-2.5-5.6,2.9
		L39.6,59c0,0,2.1,2.8,5.6,0.9L51.9,57.9z"/>
	<circle class="st0" cx="57.8" cy="41.8" r="5.6"/>
</g>
</svg>
