<?xml version="1.0" encoding="utf-8"?>
<!-- Generator: Adobe Illustrator 22.0.1, SVG Export Plug-In . SVG Version: 6.00 Build 0)  -->
<svg version="1.1" id="Camada_1" xmlns="http://www.w3.org/2000/svg" xmlns:xlink="http://www.w3.org/1999/xlink" x="0px" y="0px"
	 viewBox="0 0 123 135" style="enable-background:new 0 0 123 135;" xml:space="preserve">
<style type="text/css">
	.st0{fill:#1A1A1A;}
</style>
<g>
	<path class="st0" d="M48.4,76.4l-0.8,8.4l-7.4,15.5c0,0,0.9,3.8,4.1,1.4l9.4-14l1.6-4.9L48.4,76.4z"/>
	<path class="st0" d="M55.4,49.4l-5.3,18.9c0,0-2,4.6,2.6,8.4l12.1,10.5l-1.3,15.3c0,0,1.5,3.8,4.1,1l3.8-17.1c0,0-0.1-4.2-1.5-5.3
		l-8.6-9l3.5-14.9l6.9,5c0,0,2.5,1.9,4.5,0l10.5-6.9c0,0,2.1-4.3-3.4-2.8l-8.3,3.8l-9.4-6.9l-8.3-2.5C57.6,46.9,56.9,47.1,55.4,49.4
		z"/>
	<path class="st0" d="M83,104.7L83,104.7c-0.9,0-1.6-0.7-1.6-1.6v-55c0-0.9,0.7-1.6,1.6-1.6h0c0.9,0,1.6,0.7,1.6,1.6v55
		C84.6,104,83.9,104.7,83,104.7z"/>
	<circle class="st0" cx="65.1" cy="37.4" r="7.1"/>
	<path class="st0" d="M52.7,49.1l-5.3,17c0,0-1.3,3.2-7.8,1.7c0,0-6.8-2.4-2-9.1C37.5,58.6,49.5,40.8,52.7,49.1z"/>
</g>
</svg>
